/* XPM */
static const char * IconZoneZ8_xpm[] = {
"32 32 2 1",
" 	c #FFFFFF",
".	c #000000",
"                                ",
"                                ",
"                                ",
"                                ",
"    ........................    ",
"    .                      .    ",
"    .                      .    ",
"    .                      .    ",
"    .                      .    ",
"    .                      .    ",
"    .                      .    ",
"    .                      .    ",
"    .                      .    ",
"    .                      .    ",
"    .                      .    ",
"    .    .............     .    ",
"    .    .............     .    ",
"    .    ..         ..     .    ",
"    .    ..         ..     .    ",
"    .    ..         ..     .    ",
"    .    ..         ..     .    ",
"    .    ..         ..     .    ",
"    .    ..         ..     .    ",
"    .    ..         ..     .    ",
"    .    ..         ..     .    ",
"    .    ..         ..     .    ",
"    .    .............     .    ",
"    ........................    ",
"                                ",
"                                ",
"                                ",
"                                "};
