/* XPM */
static const char * IconModeIC_xpm[] = {
"32 32 99 2",
"  	c #000000",
". 	c #1B1C05",
"+ 	c #0E0E02",
"@ 	c #C6CB23",
"# 	c #767915",
"$ 	c #979C1A",
"% 	c #50520E",
"& 	c #1D1E05",
"* 	c #6E7113",
"= 	c #999E1B",
"- 	c #C5CA22",
"; 	c #B1B61F",
"> 	c #888C18",
", 	c #45470C",
"' 	c #030301",
") 	c #969B1A",
"! 	c #4F510E",
"~ 	c #232406",
"{ 	c #A2A71C",
"] 	c #F6FD2B",
"^ 	c #DFE527",
"/ 	c #606211",
"( 	c #51530E",
"_ 	c #EDF429",
": 	c #B9BE20",
"< 	c #111203",
"[ 	c #656812",
"} 	c #D0D624",
"| 	c #3D3F0B",
"1 	c #989D1A",
"2 	c #4E500E",
"3 	c #43440C",
"4 	c #F3FA2A",
"5 	c #B6BC20",
"6 	c #B0B51F",
"7 	c #E1E827",
"8 	c #606311",
"9 	c #0C0C02",
"0 	c #DCE226",
"a 	c #686B12",
"b 	c #060601",
"c 	c #CBD123",
"d 	c #747714",
"e 	c #6B6E13",
"f 	c #090902",
"g 	c #969A1A",
"h 	c #CBD023",
"i 	c #171804",
"j 	c #8E9219",
"k 	c #343609",
"l 	c #292A07",
"m 	c #ABB01E",
"n 	c #ADB21E",
"o 	c #9FA41C",
"p 	c #D6DC25",
"q 	c #2E3008",
"r 	c #A5AA1D",
"s 	c #979B1A",
"t 	c #C8CD23",
"u 	c #57590F",
"v 	c #848717",
"w 	c #F0F72A",
"x 	c #9CA01B",
"y 	c #1A1B05",
"z 	c #0F1003",
"A 	c #D5DB25",
"B 	c #F3FA2B",
"C 	c #5E6011",
"D 	c #94981A",
"E 	c #D9DF26",
"F 	c #0E0F03",
"G 	c #8A8E18",
"H 	c #E2E827",
"I 	c #E9F029",
"J 	c #696C13",
"K 	c #9CA11B",
"L 	c #E5EB28",
"M 	c #BFC421",
"N 	c #282907",
"O 	c #F1F82A",
"P 	c #EAF129",
"Q 	c #E7EE28",
"R 	c #DCE326",
"S 	c #818417",
"T 	c #313309",
"U 	c #3A3C0A",
"V 	c #54560F",
"W 	c #3C3E0A",
"X 	c #CAD023",
"Y 	c #C0C521",
"Z 	c #CBD124",
"` 	c #C6CC22",
" .	c #787B15",
"..	c #151604",
"+.	c #E8EF29",
"@.	c #EEF52A",
"#.	c #131403",
"$.	c #818517",
"%.	c #636611",
"                                                                ",
"                                                                ",
"                                                                ",
"                                                        . +     ",
"                                                        @ #     ",
"                                                        $ %     ",
"                  & * = - - ; > , '                     ) !     ",
"              ~ { ] ] ] ] ] ] ] ] ^ / '                 ) !     ",
"            ( _ ] ] ] ] ] ] ] ] ] ] ] : <               ) !     ",
"          [ ] ] ] ] ] ] ] ] ] ] ] ] ] ] } <           | 1 2     ",
"        3 4 ] ] ] ] ] ] ] ] ] ] ] ] ] ] ] 5 '         6 7 8     ",
"      9 0 ] ] ] ] ] ] ] ] ] ] ] ] ] ] ] ] ] a         b c d     ",
"      e ] ] ] ] ] ] ] ] ] ] ] ] ] ] ] ] ] ] ^ f         g !     ",
"      h ] ] ] ] ] ] ] ] ] ] ] ] ] ] ] ] ] ] ] (         ) 2     ",
"    i ] ] ] ] ] ] ] ] ] ] ] ] ] ] ] ] ] ] ] ] j         ) !     ",
"    k ] ] ] ] ] ] ] ] ] ] ] ] ] ] ] ] ] ] ] ] :         g !     ",
"    2 ] ] ] ] ] ] ] ] ] ] ] ] ] ] ] ] ] ] ] ] h         ) !     ",
"    3 ] ] ] ] ] ] ] ] ] ] ] ] ] ] ] ] ] ] ] ] -         ) !     ",
"    l ] ] ] ] ] ] ] ] ] ] ] ] ] ] ] ] ] ] ] ] m       9 n !     ",
"    ' _ ] ] ] ] ] ] ] ] ] ] ] ] ] ] ] ] ] ] ] e       & 0 !     ",
"      o ] ] ] ] ] ] ] ] ] ] ] ] ] ] ] ] ] ] ] &         p !     ",
"      q 4 ] ] ] ] ] ] ] ] ] ] ] ] ] ] ] ] ] r           ) 2     ",
"        ) ] ] ] ] ] ] ] ] ] ] ] ] ] ] ] ] _ ~           s !     ",
"        f t ] ] ] ] ] ] ] ] ] ] ] ] ] ] ] u           v w x     ",
"          y h ] ] ] ] ] ] ] ] ] ] ] ] 4 a           z A B C     ",
"            f D ] ] ] ] ] ] ] ] ] ] E ,         F G 0 H I J     ",
"                q K L ] ] ] ] ] M e b           N O P Q R S     ",
"                      T U V T i                 W X Y Z `  .    ",
"                                                  ..@ +.@.*     ",
"                                                      #.$.%.    ",
"                                                                ",
"                                                                "};
