/* XPM */
static const char * IconModeDiaporama_xpm[] = {
"32 32 147 2",
"  	c #C4DBF9",
". 	c #C3DAF9",
"+ 	c #C6DDFB",
"@ 	c #C9E1FF",
"# 	c #CBE3FF",
"$ 	c #C3DAF8",
"% 	c #C2D9F8",
"& 	c #C9E0FF",
"* 	c #D4EDFF",
"= 	c #D9F2FF",
"- 	c #C6DDFA",
"; 	c #C9E0FA",
"> 	c #BAD0EC",
", 	c #A2B5CD",
"' 	c #98A9C1",
") 	c #C9E1FE",
"! 	c #D4EDFE",
"~ 	c #A2B4CE",
"{ 	c #4E5864",
"] 	c #2C3238",
"^ 	c #CCE4FF",
"/ 	c #DCF5FF",
"( 	c #92A2B9",
"_ 	c #16191D",
": 	c #000000",
"< 	c #91A1B8",
"[ 	c #14181C",
"} 	c #A4B6CF",
"| 	c #535E65",
"1 	c #20242A",
"2 	c #040507",
"3 	c #080807",
"4 	c #2A2A2A",
"5 	c #3B3B3B",
"6 	c #404040",
"7 	c #434343",
"8 	c #BFD6F1",
"9 	c #B2C7D2",
"0 	c #6F7C8E",
"a 	c #0E1217",
"b 	c #1C1A18",
"c 	c #90908F",
"d 	c #C8C8C8",
"e 	c #D9D9D9",
"f 	c #E0E0E0",
"g 	c #D0E9FF",
"h 	c #EBFFFF",
"i 	c #9EB1CB",
"j 	c #141921",
"k 	c #2B2925",
"l 	c #D9D9D7",
"m 	c #FFFFFF",
"n 	c #E9E9E9",
"o 	c #D7D7D7",
"p 	c #CDE5FF",
"q 	c #DFF9FF",
"r 	c #94A6BE",
"s 	c #13181F",
"t 	c #2E2C28",
"u 	c #DCDCDA",
"v 	c #EDEDED",
"w 	c #636363",
"x 	c #282828",
"y 	c #8FA0B8",
"z 	c #12171E",
"A 	c #2D2B27",
"B 	c #D6D5D4",
"C 	c #E4E4E4",
"D 	c #5A5A5A",
"E 	c #1F1F1F",
"F 	c #272522",
"G 	c #C5C5C3",
"H 	c #F7F7F7",
"I 	c #CECECE",
"J 	c #BCBCBC",
"K 	c #DAF3FF",
"L 	c #8D9EB6",
"M 	c #0B0F16",
"N 	c #201D19",
"O 	c #C0C0BE",
"P 	c #DBF4FF",
"Q 	c #8999B1",
"R 	c #000006",
"S 	c #19150F",
"T 	c #CCCCC9",
"U 	c #9DAFC8",
"V 	c #404951",
"W 	c #3E4043",
"X 	c #989897",
"Y 	c #BEBEBC",
"Z 	c #BEBDBC",
"` 	c #C0C0BF",
" .	c #C4C4C4",
"..	c #BED5F0",
"+.	c #AEC3CD",
"@.	c #798597",
"#.	c #3D4042",
"$.	c #252320",
"%.	c #24221F",
"&.	c #23201F",
"*.	c #2A2926",
"=.	c #373737",
"-.	c #D0E8FF",
";.	c #E9FFFF",
">.	c #AEC2DF",
",.	c #3F4A56",
"'.	c #13191F",
").	c #161C1F",
"!.	c #060A0F",
"~.	c #C8DFFD",
"{.	c #BED4F2",
"].	c #9CB0C9",
"^.	c #94A7BC",
"/.	c #9FB2BC",
"(.	c #677485",
"_.	c #0A0C0E",
":.	c #C8E0FF",
"<.	c #D3ECFF",
"[.	c #DAF4FF",
"}.	c #DEF8FF",
"|.	c #E8FFFF",
"1.	c #F8FFFF",
"2.	c #A5B9D2",
"3.	c #1B1F22",
"4.	c #C5DCFA",
"5.	c #C7DFFF",
"6.	c #DBF5FF",
"7.	c #C9E1FB",
"8.	c #B8CEEA",
"9.	c #9CAFC6",
"0.	c #96A8BC",
"a.	c #A1B3BC",
"b.	c #697686",
"c.	c #0C0D0E",
"d.	c #CAE2FE",
"e.	c #D6EFFE",
"f.	c #3E464F",
"g.	c #191C20",
"h.	c #1C2020",
"i.	c #0C0E0F",
"j.	c #171A1E",
"k.	c #16181E",
"l.	c #1D2125",
"m.	c #2A2F35",
"n.	c #90A1B8",
"o.	c #92A4BA",
"p.	c #97A8C0",
"                                                                ",
"                                                                ",
"                                                                ",
"                                                                ",
"      . + @ # # # # # # # # # # # # # # # # # # # # @ + .       ",
"    $ % & * = = = = = = = = = = = = = = = = = = = = * & %       ",
"    - ; > , ' ' ' ' ' ' ' ' ' ' ' ' ' ' ' ' ' ' ' ' , > ;       ",
"    ) ! ~ { ] ] ] ] ] ] ] ] ] ] ] ] ] ] ] ] ] ] ] ] { ~ !       ",
"    ^ / ( _ : : : : : : : : : : : : : : : : : : : : _ ( /       ",
"    ^ / < [ : : : : : : : : : : : : : : : : : : : : [ < /       ",
"    ) ! } | 1 2 3 4 5 6 7 7 7 7 7 7 7 7 6 5 4 3 2 1 | } !       ",
"    - ; 8 9 0 a b c d e f f f f f f f f e d c b a 0 9 8 ;       ",
"    $ % g h i j k l m n o o o o o o o o n m l k j i h g %       ",
"      . p q r s t u v w x x x x x x x x w v u t s r q p .       ",
"        # = y z A B C D E E E E E E E E D C B A z y = #         ",
"        # = y z F G H I J J J J J J J J I H G F z y = #         ",
"        # K L M N O m m m m m m m m m m m m O N M L K #         ",
"        ^ P Q R S T m m m m m m m m m m m m T S R Q P ^         ",
"        ) ! U V W X Y Y Z Z `  . .` Z Z Y Y X W V U ! )         ",
"        - ; ..+.@.#.$.$.%.&.*.=.=.*.&.%.$.$.#.@.+...; -         ",
"        $ % -.;.>.,.z z '.).!.: : !.).'.z z ,.>.;.-.% $         ",
"          . ~.-.{.].y y ^./.(._._.(./.^.y y ].{.-.~..           ",
"            $ % :.<.[.}.|.1.2.3.3.2.1.|.}.[.<.:.% $             ",
"              . 4.5.-.6.|.1.2.3.3.2.1.|.6.-.5.4..               ",
"                + 7.8.9.0.a.b.c.c.b.a.0.9.8.7.+                 ",
"                d.e.U f.g.h.i.: : i.h.g.f.U e.d.                ",
"                d.e.U f.j.k.l.m.m.l.k.j.f.U e.d.                ",
"                + 7.8.9.n.n.o.p.p.o.n.n.9.8.7.+                 ",
"                $ % & * = = = = = = = = * & % $                 ",
"                  . + @ # # # # # # # # @ + .                   ",
"                                                                ",
"                                                                "};
