/* XPM */
static const char * IconCleUSBBarre_xpm[] = {
"32 32 95 2",
"  	g None",
". 	g #000000",
"+ 	g #0D0D0D",
"@ 	g #050505",
"# 	g #151515",
"$ 	g #4C4C4C",
"% 	g #DDDDDD",
"& 	g #E9E9E9",
"* 	g #6C6C6C",
"= 	g #242424",
"- 	g #787878",
"; 	g #464646",
"> 	g #545454",
", 	g #EDEDED",
"' 	g #F2F2F2",
") 	g #A7A7A7",
"! 	g #454545",
"~ 	g #A2A2A2",
"{ 	g #DBDBDB",
"] 	g #525252",
"^ 	g #595959",
"/ 	g #494949",
"( 	g #666666",
"_ 	g #CECECE",
": 	g #F1F1F1",
"< 	g #DADADA",
"[ 	g #484848",
"} 	g #5B5B5B",
"| 	g #868686",
"1 	g #0E0E0E",
"2 	g #C4C4C4",
"3 	g #E3E3E3",
"4 	g #BFBFBF",
"5 	g #4A4A4A",
"6 	g #3A3A3A",
"7 	g #8E8E8E",
"8 	g #2A2A2A",
"9 	g #101010",
"0 	g #AAAAAA",
"a 	g #CDCDCD",
"b 	g #7D7D7D",
"c 	g #252525",
"d 	g #898989",
"e 	g #E7E7E7",
"f 	g #C2C2C2",
"g 	g #111111",
"h 	g #060606",
"i 	g #444444",
"j 	g #C0C0C0",
"k 	g #D2D2D2",
"l 	g #121212",
"m 	g #5A5A5A",
"n 	g #CBCBCB",
"o 	g #E4E4E4",
"p 	g #BABABA",
"q 	g #505050",
"r 	g #E6E6E6",
"s 	g #EFEFEF",
"t 	g #999999",
"u 	g #7A7A7A",
"v 	g #DFDFDF",
"w 	g #E5E5E5",
"x 	g #383838",
"y 	g #3C3C3C",
"z 	g #ABABAB",
"A 	g #B1B1B1",
"B 	g #D9D9D9",
"C 	g #959595",
"D 	g #535353",
"E 	g #070707",
"F 	g #393939",
"G 	g #A0A0A0",
"H 	g #DCDCDC",
"I 	g #EEEEEE",
"J 	g #020202",
"K 	g #171717",
"L 	g #A5A5A5",
"M 	g #B3B3B3",
"N 	g #C6C6C6",
"O 	g #E8E8E8",
"P 	g #B5B5B5",
"Q 	g #565656",
"R 	g #949494",
"S 	g #9A9A9A",
"T 	g #4F4F4F",
"U 	g #404040",
"V 	g #515151",
"W 	g #131313",
"X 	g #E2E2E2",
"Y 	g #D0D0D0",
"Z 	g #141414",
"` 	g #181818",
" .	g #0A0A0A",
"..	g #080808",
"+.	g #7E7E7E",
"                                                                ",
"                                                                ",
"                                                      .         ",
"      . .                                           . . .       ",
"    . . . .                                       . . . . .     ",
"      . . . .                                   . . . . .       ",
"        . . . .                               . . . . .         ",
"          . . . .                           . . . . + +         ",
"            . . . .                     @ # . . . $ % & *       ",
"              . . . .             . = - ; . . . > , ' ' ) .     ",
"                . . . .       @ ! ~ { ] . . . ^ ' ' ' ' / .     ",
"                  . . . . @ ( _ : < [ . . . } ' ' ' ' | .       ",
"                    . . . 1 2 3 4 5 . . . 6 ' ' ' ' 7 . .       ",
"                  . 8 + . . 9 0 > . . . $ a & ' : b . .         ",
"              . c d e f g . . h . . . i j k : % ^ . .           ",
"            l m n ' , o p g . . . . q r ' s t 8 .               ",
"          c u 2 ' 3 v w % x . . . h 2 ' & b 9 .                 ",
"          y z A n 3 v B > . . . . . g C D E .                   ",
"        F G B j H k I } . . . / g . . J .                       ",
"    K L I k ' M N O m . . . m P Q J . . .                       ",
"    . R ' : _ & S T . . . U V l . . . . . .                     ",
"      W n ' X Y Z . . . `  ..         . . . .                   ",
"        V ' Y l . . . J .               . . . .                 ",
"        ..+. .. . . .                     . . . .               ",
"          . . . . .                         . . . .             ",
"        . . . . .                             . . . .           ",
"      . . . . .                                 . . . .         ",
"    . . . . .                                     . . . .       ",
"      . . .                                         . . .       ",
"        .                                             .         ",
"                                                                ",
"                                                                "};
