/* XPM */
static const char * IconCleUSB_xpm[] = {
"32 32 102 2",
"  	g None",
". 	g #080808",
"+ 	g #1E1E1E",
"@ 	g #242424",
"# 	g #0D0D0D",
"$ 	g #050505",
"% 	g #3C3C3C",
"& 	g #7A7A7A",
"* 	g #A3A3A3",
"= 	g #B9B9B9",
"- 	g #CACACA",
"; 	g #DDDDDD",
"> 	g #E9E9E9",
", 	g #6C6C6C",
"' 	g #000000",
") 	g #787878",
"! 	g #BABABA",
"~ 	g #D5D5D5",
"{ 	g #D1D1D1",
"] 	g #D2D2D2",
"^ 	g #DFDFDF",
"/ 	g #EDEDED",
"( 	g #F2F2F2",
"_ 	g #A7A7A7",
": 	g #454545",
"< 	g #A2A2A2",
"[ 	g #DBDBDB",
"} 	g #DADADA",
"| 	g #CFCFCF",
"1 	g #CBCBCB",
"2 	g #ECECEC",
"3 	g #494949",
"4 	g #070707",
"5 	g #666666",
"6 	g #CECECE",
"7 	g #F1F1F1",
"8 	g #BFBFBF",
"9 	g #BCBCBC",
"0 	g #ABABAB",
"a 	g #E2E2E2",
"b 	g #868686",
"c 	g #5B5B5B",
"d 	g #CDCDCD",
"e 	g #E3E3E3",
"f 	g #C4C4C4",
"g 	g #E8E8E8",
"h 	g #474747",
"i 	g #999999",
"j 	g #8E8E8E",
"k 	g #353535",
"l 	g #B8B8B8",
"m 	g #DEDEDE",
"n 	g #F0F0F0",
"o 	g #C9C9C9",
"p 	g #7D7D7D",
"q 	g #252525",
"r 	g #898989",
"s 	g #E7E7E7",
"t 	g #E6E6E6",
"u 	g #EAEAEA",
"v 	g #D9D9D9",
"w 	g #B5B5B5",
"x 	g #C0C0C0",
"y 	g #595959",
"z 	g #121212",
"A 	g #5A5A5A",
"B 	g #E4E4E4",
"C 	g #EBEBEB",
"D 	g #B1B1B1",
"E 	g #B6B6B6",
"F 	g #D4D4D4",
"G 	g #EFEFEF",
"H 	g #2A2A2A",
"I 	g #E5E5E5",
"J 	g #101010",
"K 	g #535353",
"L 	g #393939",
"M 	g #A0A0A0",
"N 	g #DCDCDC",
"O 	g #EEEEEE",
"P 	g #6A6A6A",
"Q 	g #1C1C1C",
"R 	g #171717",
"S 	g #A5A5A5",
"T 	g #B3B3B3",
"U 	g #C6C6C6",
"V 	g #6B6B6B",
"W 	g #1F1F1F",
"X 	g #949494",
"Y 	g #9A9A9A",
"Z 	g #515151",
"` 	g #131313",
" .	g #D0D0D0",
"..	g #363636",
"+.	g #646464",
"@.	g #969696",
"#.	g #414141",
"$.	g #0A0A0A",
"%.	g #313131",
"&.	g #090909",
"*.	g #040404",
"=.	g #7E7E7E",
"                                                                ",
"                                                                ",
"                                                                ",
"                                                                ",
"                                                                ",
"                                                                ",
"                                                                ",
"                                                . + @ #         ",
"                                        $ % & * = - ; > ,       ",
"                                  ' @ ) ! ~ { ] ^ / ( ( _ '     ",
"                              $ : < [ } | 1 ; 2 ( ( ( ( 3 '     ",
"                          4 5 6 7 } 8 9 0 a ( ( ( ( ( b '       ",
"                      ' c d ( e 8 f g < h i ( ( ( ( j ' '       ",
"                  ' k l ( ( > ] m n ( e o d > ( 7 p ' '         ",
"              ' q r s ( / t g ( u v = w x ] 7 ; y ' '           ",
"            z A 1 ( / B > C d l D E F t ( G i H '               ",
"          q & f ( e ^ I ; ! w B G ( ( ( > p J '                 ",
"          % 0 D 1 e ^ v m 2 ( ( ( ( n l K 4 '                   ",
"        L M v x N ] O ( ( ( ( ( ( f P Q '                       ",
"    R S O ] ( T U g G ( ( ( O w V W '                           ",
"    ' X ( 7 6 > Y { ( ( 2 0 Z z '                               ",
"      ` 1 ( a  ...+.s @.#.$.'                                   ",
"        Z (  .%.' &.H *.'                                       ",
"        . =.+     ' '                                           ",
"                                                                ",
"                                                                ",
"                                                                ",
"                                                                ",
"                                                                ",
"                                                                ",
"                                                                ",
"                                                                "};
