/* XPM */
static const char * IconPaletteNoirVertBlanc_xpm[] = {
"32 32 31 1",
" 	c None",
".	c #FFFFFF",
"+	c #FFFDFF",
"@	c #F8F5FF",
"#	c #EDEBF6",
"$	c #E4E3EB",
"%	c #D9DADF",
"&	c #CED1D3",
"*	c #C3C8C7",
"=	c #B8C0BC",
"-	c #AFB7B0",
";	c #A4AEA4",
">	c #98A598",
",	c #8E9C8D",
"'	c #859482",
")	c #7A8B76",
"!	c #6E8269",
"~	c #64795D",
"{	c #5A7152",
"]	c #4F6847",
"^	c #445F3A",
"/	c #39552E",
"(	c #2F4E23",
"_	c #254518",
":	c #1A3C0C",
"<	c #0F3201",
"[	c #042A00",
"}	c #002200",
"|	c #001900",
"1	c #000F00",
"2	c #000600",
"                                ",
" .............................. ",
" ++++++++++++++++++++++++++++++ ",
" @@@@@@@@@@@@@@@@@@@@@@@@@@@@@@ ",
" ############################## ",
" $$$$$$$$$$$$$$$$$$$$$$$$$$$$$$ ",
" %%%%%%%%%%%%%%%%%%%%%%%%%%%%%% ",
" &&&&&&&&&&&&&&&&&&&&&&&&&&&&&& ",
" ****************************** ",
" ============================== ",
" ------------------------------ ",
" ;;;;;;;;;;;;;;;;;;;;;;;;;;;;;; ",
" >>>>>>>>>>>>>>>>>>>>>>>>>>>>>> ",
" ,,,,,,,,,,,,,,,,,,,,,,,,,,,,,, ",
" '''''''''''''''''''''''''''''' ",
" )))))))))))))))))))))))))))))) ",
" !!!!!!!!!!!!!!!!!!!!!!!!!!!!!! ",
" ~~~~~~~~~~~~~~~~~~~~~~~~~~~~~~ ",
" {{{{{{{{{{{{{{{{{{{{{{{{{{{{{{ ",
" ]]]]]]]]]]]]]]]]]]]]]]]]]]]]]] ",
" ^^^^^^^^^^^^^^^^^^^^^^^^^^^^^^ ",
" ////////////////////////////// ",
" (((((((((((((((((((((((((((((( ",
" ______________________________ ",
" :::::::::::::::::::::::::::::: ",
" <<<<<<<<<<<<<<<<<<<<<<<<<<<<<< ",
" [[[[[[[[[[[[[[[[[[[[[[[[[[[[[[ ",
" }}}}}}}}}}}}}}}}}}}}}}}}}}}}}} ",
" |||||||||||||||||||||||||||||| ",
" 111111111111111111111111111111 ",
" 222222222222222222222222222222 ",
"                                "};
