/* XPM */
static const char * IconZoneZ2_xpm[] = {
"32 32 2 1",
" 	c #FFFFFF",
".	c #000000",
"                                ",
"                                ",
"                                ",
"                                ",
"    ........................    ",
"    .    .............     .    ",
"    .    ..         ..     .    ",
"    .    ..         ..     .    ",
"    .    ..         ..     .    ",
"    .    ..         ..     .    ",
"    .    ..         ..     .    ",
"    .    ..         ..     .    ",
"    .    ..         ..     .    ",
"    .    ..         ..     .    ",
"    .    ..         ..     .    ",
"    .    .............     .    ",
"    .    .............     .    ",
"    .                      .    ",
"    .                      .    ",
"    .                      .    ",
"    .                      .    ",
"    .                      .    ",
"    .                      .    ",
"    .                      .    ",
"    .                      .    ",
"    .                      .    ",
"    .                      .    ",
"    ........................    ",
"                                ",
"                                ",
"                                ",
"                                "};
